<?xml version="1.0" encoding="UTF-8" standalone="no"?>
<!-- Created with Inkscape (http://www.inkscape.org/) -->

<svg
  width="3346.5"
  height="800"
  viewBox="0 0 3346.5 800"
  version="1.1"
  id="svg1"
  xmlns="http://www.w3.org/2000/svg">
  <g id="layer1">
   <rect
     x="0"
     y="0"
     width="3346.5"
     height="800"
     fill="#ffffff"
     id="rect11" />
   <rect
     x="0"
     y="292.0"
     width="1623.5"
     height="45.5"
     fill="#ffff00"
     id="rect12" />
   <rect
     x="0"
     y="642.5"
     width="3346.5"
     height="157.5"
     fill="#009a44"
     id="rect13" />
   <path
     d="m 102.0,314.0 c 0,-9.5 7.5,-17.0 16.5,-17.0 9.0,0 16.5,7.5 16.5,17.0 0,9.5 -7.5,17.0 -16.5,17.0 -9.0,0 -16.5,-7.5 -16.5,-17.0 z"
     fill="#ffffff"
     id="path13" />
   <rect
     x="1622.5"
     y="292.0"
     width="1496.5"
     height="45.5"
     fill="#d9d9d9"
     id="rect22" />
   <path
     d="m 1820,314.0 c 0,-9.5 7.5,-17.0 17.0,-17.0 9.5,0 17.0,7.5 17.0,17.0 0,9.5 -7.5,17.0 -17.0,17.0 -9.5,0 -17.0,-7.5 -17.0,-17.0 z"
     fill="#ffffff"
     id="path22" />
   <path
     d="m 2035.5,314.0 c 0,-9.5 7.5,-17.0 17.0,-17.0 9.5,0 17.0,7.5 17.0,17.0 0,9.5 -7.5,17.0 -17.0,17.0 -9.5,0 -17.0,-7.5 -17.0,-17.0 z"
     fill="#ffffff"
     id="path23" />
   <path
     d="m 316.5,314.5 c 0,-9.0 7.5,-16.5 16.5,-16.5 9.0,0 16.5,7.5 16.5,16.5 0,9.0 -7.5,16.5 -16.5,16.5 -9.0,0 -16.5,-7.5 -16.5,-16.5 z"
     fill="#ffffff"
     id="path24" />
   <path
     d="m 2250,314.0 c 0,-9.5 7.5,-17.0 17.0,-17.0 9.5,0 17.0,7.5 17.0,17.0 0,9.5 -7.5,17.0 -17.0,17.0 -9.5,0 -17.0,-7.5 -17.0,-17.0 z"
     fill="#ffffff"
     id="path25" />
   <path
     d="m 2464.5,314.0 c 0,-9.5 7.5,-17.0 17.0,-17.0 9.5,0 17.0,7.5 17.0,17.0 0,9.5 -7.5,17.0 -17.0,17.0 -9.5,0 -17.0,-7.5 -17.0,-17.0 z"
     fill="#ffffff"
     id="path26" />
   <path
     d="m 2682.0,314.0 c 0,-9.5 7.5,-17.0 16.5,-17.0 9.0,0 16.5,7.5 16.5,17.0 0,9.5 -7.5,17.0 -16.5,17.0 -9.0,0 -16.5,-7.5 -16.5,-17.0 z"
     fill="#ffffff"
     id="path27" />
   <path
     d="m 2897.5,314.0 c 0,-9.5 7.5,-17.0 17.0,-17.0 9.5,0 17.0,7.5 17.0,17.0 0,9.5 -7.5,17.0 -17.0,17.0 -9.5,0 -17.0,-7.5 -17.0,-17.0 z"
     fill="#ffffff"
     id="path28" />
   <path
     d="m 532.0,314.0 c 0,-9.5 7.5,-17.0 17.0,-17.0 9.5,0 17.0,7.5 17.0,17.0 0,9.5 -7.5,17.0 -17.0,17.0 -9.5,0 -17.0,-7.5 -17.0,-17.0 z"
     fill="#ffffff"
     id="path29" />
   <path
     d="m 747.5,314.0 c 0,-9.5 7.5,-17.0 17.0,-17.0 9.5,0 17.0,7.5 17.0,17.0 0,9.5 -7.5,17.0 -17.0,17.0 -9.5,0 -17.0,-7.5 -17.0,-17.0 z"
     fill="#ffffff"
     id="path30" />
   <path
     d="m 962.5,314.5 c 0,-9.0 7.5,-16.5 16.5,-16.5 9.0,0 16.5,7.5 16.5,16.5 0,9.0 -7.5,16.5 -16.5,16.5 -9.0,0 -16.5,-7.5 -16.5,-16.5 z"
     fill="#ffffff"
     id="path31" />
   <path
     d="m 1177.5,314.0 c 0,-9.5 7.5,-17.0 17.0,-17.0 9.5,0 17.0,7.5 17.0,17.0 0,9.5 -7.5,17.0 -17.0,17.0 -9.5,0 -17.0,-7.5 -17.0,-17.0 z"
     fill="#ffffff"
     id="path32" />
   <path
     d="m 1392.0,314.5 c 0,-9.0 7.5,-16.5 16.5,-16.5 9.0,0 16.5,7.5 16.5,16.5 0,9.0 -7.5,16.5 -16.5,16.5 -9.0,0 -16.5,-7.5 -16.5,-16.5 z"
     fill="#ffffff"
     id="path33" />
   <path
     d="m 3086.5,313.5 c 0,-18.5 15.0,-33.5 33.0,-33.5 18.5,0 33.0,15.0 33.0,33.5 0,18.5 -14.5,33.5 -33.0,33.5 -18.0,0 -33.0,-15.0 -33.0,-33.5 z"
     fill="#d9d9d9"
     id="path34" />
   <path
     d="m 3094.5,313.5 c 0,-14.0 11.5,-25.5 25.5,-25.5 14.0,0 25.5,11.5 25.5,25.5 0,14.0 -11.5,25.5 -25.5,25.5 -14.0,0 -25.5,-11.5 -25.5,-25.5 z"
     fill="#ffffff"
     id="path35" />
   <path
     d="m 1491.0,390.0 c 0,-9.0 7.5,-16.5 16.5,-16.5 h 229.5 c 9.0,0 16.5,7.5 16.5,16.5 v 73.0 c 0,9.0 -7.5,16.5 -16.5,16.5 h -229.5 c -9.0,0 -16.5,-7.5 -16.5,-16.5 z"
     fill="#142966"
     id="path36" />
   <rect
     x="1614.5"
     y="313.5"
     width="15.5"
     height="76.5"
     fill="#142966"
     id="rect36" />
   <text
     x="1516.0"
     y="435.5"
     fill="#ffffff"
     font-family="Microsoft YaHei"
     font-size="51.0px"
     letter-spacing="3.0px"
     id="text36">胜太西路</text>
   <text
     x="1545.0"
     y="464.5"
     fill="#ffffff"
     font-family="FZHei-B01"
     font-size="20px"
     letter-spacing="1.0px"
     id="text37">SHENGTAIXILU</text>
   <circle
     cx="1622.0"
     cy="315.5"
     r="37.5"
     fill="#ff0000"
     id="path37" />
   <circle
     cx="1622.0"
     cy="315.5"
     r="28.0"
     fill="#ffffff"
     id="path38" />
   <text
     x="470.0"
     y="243.5"
     fill="#000000"
     font-family="Microsoft YaHei"
     font-size="51.0px"
     letter-spacing="4.0px"
     id="text38">卡子门</text>
   <text
     x="500.5"
     y="272.0"
     fill="#000000"
     font-family="FZHei-B01"
     font-size="20px"
     letter-spacing="1.5px"
     id="text39">KAZIMEN</text>
   <text
     x="684.0"
     y="398.0"
     fill="#000000"
     font-family="Microsoft YaHei"
     font-size="51.0px"
     letter-spacing="4px"
     id="text40">大明路</text>
   <text
     x="709.5"
     y="427.0"
     fill="#000000"
     font-family="FZHei-B01"
     font-size="20px"
     letter-spacing="1.0px"
     id="text41">DAMINGLU</text>
   <rect
     x="514.0"
     y="116.5"
     width="69.5"
     height="68.5"
     fill="#00ffff"
     id="rect14" />
   <rect
     x="1250.0"
     y="459.0"
     width="69.5"
     height="68.5"
     fill="#00ffff"
     id="rect14-5" />
   <rect
     x="1168.0"
     y="459.0"
     width="69.5"
     height="68.5"
     fill="#00ffff"
     id="rect14-5-1" />
   <rect
     x="1069.5"
     y="459.0"
     width="36.5"
     height="68.5"
     fill="#00ffff"
     id="rect14-5-1-1" />
  </g>
</svg>
