<?xml version="1.0" encoding="UTF-8" standalone="no"?>
<!-- Created with Inkscape (http://www.inkscape.org/) -->

<svg
   width="1976"
   height="1976"
   viewBox="0 0 1976 1976"
   version="1.1"
   id="svg1"
   xmlns="http://www.w3.org/2000/svg"
   xmlns:svg="http://www.w3.org/2000/svg">
   <path
      style="fill:#000000;fill-rule:evenodd"
      d="M 246.96101,-3.2e-6 C 111.04215,-3.2e-6 1.36e-5,111.04214 1.36e-5,246.961 V 1729.039 C 1.36e-5,1864.9579 111.04215,1976 246.96101,1976 H 1729.0236 C 1864.9616,1976 1976,1864.9569 1976,1729.039 V 246.961 C 1976,111.04305 1864.9616,-3.2e-6 1729.0236,-3.2e-6 Z m 0,79.8383842 H 1729.0236 c 92.7985,0 167.138,74.351529 167.138,167.122619 v 1482.078 c 0,92.7711 -74.3395,167.1226 -167.138,167.1226 H 246.96101 c -92.77016,0 -167.122612,-74.3524 -167.122612,-167.1226 V 246.961 c 0,-92.77017 74.352452,-167.122619 167.122612,-167.122619 z"
      id="path1" />
   <path
      d="m 988.00002,239.51515 c -57.44372,0 -104.02942,43.60373 -104.02942,97.37488 V 527.85546 538.5578 768.56819 L 246.89223,1117.5498 v 148.9385 L 883.9706,1081.6784 v 343.8679 c 0,26.67 5.86812,51.5556 16.04752,72.5491 l -16.04752,10.1435 -195.01324,123.4062 v 104.8397 l 195.01324,-56.5774 104.02942,-30.167 104.02938,30.167 195.0053,56.5774 v -104.8397 l -195.0053,-123.4062 -16.0475,-10.1435 c 10.1794,-20.9935 16.0475,-45.8791 16.0475,-72.5491 v -343.8679 l 637.0704,184.8099 V 1117.5498 L 1092.0294,768.56819 V 538.5578 527.85546 336.89003 c 0,-53.77115 -46.5857,-97.37488 -104.02938,-97.37488 z"
      id="path2"
      style="fill:#000000" />
</svg>
