<?xml version="1.0" encoding="UTF-8" standalone="no"?>
<!-- Created with Inkscape (http://www.inkscape.org/) -->

<svg
   width="1976"
   height="1976"
   viewBox="0 0 1976 1976"
   version="1.1"
   id="svg1"
   xmlns="http://www.w3.org/2000/svg"
   xmlns:svg="http://www.w3.org/2000/svg">
   <path
      style="fill:#000000;fill-rule:evenodd"
      d="M 246.96094,0 C 111.04205,0 0,111.04205 0,246.96094 V 1729.0391 C 0,1864.9579 111.04204,1976 246.96094,1976 H 1729.0391 C 1864.9579,1976 1976,1864.9579 1976,1729.0391 V 246.96094 C 1976,111.04204 1864.9579,0 1729.0391,0 Z m 0,79.837891 H 1729.0391 c 92.7701,0 167.123,74.352879 167.123,167.123049 V 1729.0391 c 0,92.7701 -74.3529,167.123 -167.123,167.123 H 246.96094 c -92.77017,0 -167.123049,-74.3529 -167.123049,-167.123 V 246.96094 c 0,-92.77018 74.352869,-167.123049 167.123049,-167.123049 z"
      id="path3" />
   <path
      d="m 987.99998,239.74269 c -150.24386,-0.91015 -249.45901,0.93411 -271.96945,5.0897 -22.49446,4.17156 -49.55568,15.20921 -68.23786,27.90352 -16.97364,11.54862 -38.37831,32.18684 -47.46791,45.84319 -9.0417,13.66834 -21.82782,47.20046 -28.4065,74.53712 -6.58267,27.32069 -22.43059,97.81798 -35.21671,156.6469 l -23.32079,106.98742 v 276.83959 c 0.0559,265.48657 0.51097,278.36447 13.64837,313.29377 7.5088,20.0195 22.32281,46.3183 32.95729,58.4098 10.58657,12.0875 35.06501,31.0411 54.4338,42.0868 19.30093,11.0616 35.10494,22.0833 35.05704,24.4944 v 0.032 0.032 0.036 0.028 l -42.18261,53.6993 -244.10186,310.7829 h 176.46677 l 42.85326,-68.3656 h 405.48716 405.49112 l 42.8493,68.3656 h 176.4668 l -244.0979,-310.7829 -42.1866,-53.6993 v -0.032 -0.032 -0.032 -0.032 c -0.048,-2.4111 15.7561,-13.4328 35.057,-24.4944 19.3688,-11.0457 43.8473,-30.0033 54.4338,-42.0908 10.6345,-12.0875 25.4485,-38.3863 32.9573,-58.4098 13.1574,-34.9293 13.5885,-47.8032 13.6484,-313.29376 v -276.8356 l -23.3208,-106.98742 c -12.7821,-58.82892 -28.634,-129.32621 -35.2167,-156.6469 -6.5787,-27.33666 -19.3688,-60.86878 -28.4065,-74.53712 -9.0896,-13.65635 -30.4943,-34.29457 -47.4679,-45.84319 -18.6822,-12.69431 -45.7434,-23.73196 -68.2379,-27.90352 -22.5104,-4.15159 -121.7256,-5.99985 -271.96942,-5.0897 z m 0,43.23249 c 28.77372,0.02 52.07862,23.712 52.07862,52.93684 0,29.22484 -23.3049,52.92087 -52.07862,52.93684 -28.77375,-0.016 -52.07857,-23.712 -52.07857,-52.93684 0,-29.22484 23.30482,-52.91688 52.07857,-52.93684 z M 698.62976,423.96976 h 233.21989 14.44276 V 703.92704 H 726.56122 c -9.10557,-0.11177 -16.67824,-0.28343 -27.20094,-0.28343 -66.08223,-0.11177 -92.39297,-1.94805 -101.67418,-11.22927 -8.53472,-8.53871 -11.91987,-18.26303 -9.70436,-27.64403 1.84028,-7.96788 13.08152,-59.15625 25.00539,-113.76571 11.92386,-54.60945 26.08719,-100.84785 31.43237,-106.22496 5.34118,-5.37313 18.26702,-15.25712 32.16289,-18.48259 3.50091,-0.81435 13.00567,-1.60874 22.04737,-2.31931 z m 331.07784,0 h 14.4427 233.2199 c 9.0417,0.71855 18.5425,1.51294 22.0474,2.31931 13.8958,3.22547 26.8177,13.10946 32.1629,18.48657 5.3412,5.37313 19.5085,51.61153 31.4323,106.22497 11.9239,54.60546 23.1651,105.79384 25.0054,113.76171 2.2195,9.385 -1.1696,19.10932 -9.7043,27.64404 -9.2812,9.2892 -35.592,11.10153 -101.6742,11.22927 -10.5227,0 -18.0954,0.17165 -27.201,0.28343 H 1029.7076 Z M 700.37822,860.12684 c 48.57766,0 87.93,39.73157 87.93,88.76032 0,49.02875 -39.35234,88.75634 -87.93,88.75634 -48.57766,0 -87.96194,-39.72759 -87.96194,-88.75634 0,-49.02875 39.38428,-88.76032 87.96194,-88.76032 z m 575.24348,0 c 48.5777,0 87.962,39.73157 87.962,88.76032 0,49.02875 -39.3843,88.75634 -87.962,88.75634 -48.5776,0 -87.93,-39.72759 -87.93,-88.75634 0,-49.02875 39.3524,-88.76032 87.93,-88.76032 z M 768.17298,1372.0026 h 219.827 219.82702 l 33.6918,53.6993 H 987.99998 734.48118 Z m -80.58487,128.5239 h 300.41187 300.41192 l 42.8492,68.3336 H 987.99998 644.73885 Z"
      id="path4"
      style="fill:#000000" />
</svg>
