<?xml version="1.0" encoding="UTF-8"?>
<svg width="797" height="1000" viewBox="-10 0 797 1000" xmlns="http://www.w3.org/2000/svg">
   <path
      fill="currentColor"
      d="M 494,1000 C 494,983 646,881 646,669 C 646,638 640,535 565,452 L 539,423 C 455,500 539,423 455,500 C 448,188 455,500 448,188 L 757,224 L 673,301 L 702,333 C 729,362 787,425 787,566 C 787,858 499,1000 494,1000 Z M 283,0 C 283,17 131,119 131,331 C 131,362 137,464 212,547 L 238,576 C 322,499 238,576 322,499 C 329,810 322,499 329,810 L 20,774 L 105,697 L 76,665 C 49,636 -10,573 -10,432 C -10,142 278,0 283,0 Z"
   />
</svg>
