<?xml version="1.0" encoding="UTF-8"?>
<svg width="1000" height="1000" viewBox="0 0 1000 1000" xmlns="http://www.w3.org/2000/svg">
  <path
     d="M 0,500 C 0,223.85981 223.83177,0 500,0 776.16822,0 1000,223.85981 1000,500 1000,776.14019 776.16822,999.99997 500,999.99997 223.83177,999.99997 0,776.14019 0,500 Z"
     fill="#ff0000"
  />
  <path
     d="m 121.49532,500 c 0,-209.04673 167.38318,-378.50467 373.83178,-378.50467 206.4486,0 373.83178,169.45794 373.83178,378.50467 0,209.04673 -167.38318,378.50467 -373.83178,378.50467 C 288.8785,878.50467 121.49532,709.04673 121.49532,500 Z"
     fill="#ffffff"
  />
  <path
     d="m 559.41121,803.65523 c 0,-10.44757 92.79813,-73.2686 92.79813,-203.9014 0,-19.16897 -3.67383,-82.41159 -48.96168,-133.51346 l -15.83271,-17.6128 c -51.49533,47.3542 0,0 -51.49533,47.3542 -4.31402,-192.00822 0,0 -4.31402,-192.00822 l 188.55421,22.46654 -51.73178,47.60477 17.62617,19.60093 c 16.38131,17.76225 52.24206,56.64281 52.24206,143.70112 0,179.04309 -175.7028,266.30832 -178.88505,266.30832 z M 431.2,187.00944 c 0,10.44392 -92.79813,73.2728 -92.79813,203.90037 0,19.06028 3.64673,82.40122 48.96168,133.51346 l 15.83271,17.6128 c 51.49533,-47.3542 0,0 51.49533,-47.3542 4.31401,192.00925 0,0 4.31401,192.00925 l -188.55327,-22.46654 51.73178,-47.60477 -17.6271,-19.60196 c -16.38038,-17.76028 -52.24206,-56.64187 -52.24206,-143.70112 0,-179.04337 175.70374,-266.30739 178.88598,-266.30739 z"
  />
</svg>
